<svg width="16" height="16" viewBox="0 0 16 16" fill="none" xmlns="http://www.w3.org/2000/svg">
<path d="M4 11C4 10.7239 4.22386 10.5 4.5 10.5H8.5C8.77614 10.5 9 10.7239 9 11V12C9 12.2761 8.77614 12.5 8.5 12.5H4.5C4.22386 12.5 4 12.2761 4 12V11Z" fill="#B2B2B2"/>
<path d="M4.5 7.5C4.22386 7.5 4 7.72386 4 8V9C4 9.27614 4.22386 9.5 4.5 9.5H11.5C11.7761 9.5 12 9.27614 12 9V8C12 7.72386 11.7761 7.5 11.5 7.5H4.5Z" fill="#B2B2B2"/>
<path fill-rule="evenodd" clip-rule="evenodd" d="M10 1.5C10 0.671573 10.6716 0 11.5 0C12.3284 0 13 0.671573 13 1.5V2H14C15.1046 2 16 2.89543 16 4V14C16 15.1046 15.1046 16 14 16H2C0.895431 16 0 15.1046 0 14V4C0 2.89543 0.895431 2 2 2H3V1.5C3 0.671573 3.67157 0 4.5 0C5.32843 0 6 0.671573 6 1.5V2H10V1.5ZM3 6C2.44772 6 2 6.44772 2 7V13C2 13.5523 2.44772 14 3 14H13C13.5523 14 14 13.5523 14 13V7C14 6.44772 13.5523 6 13 6H3Z" fill="#B2B2B2"/>
</svg>
