<svg width="16" height="16" viewBox="0 0 16 16" fill="none" xmlns="http://www.w3.org/2000/svg">
<path fill-rule="evenodd" clip-rule="evenodd" d="M11.7567 0.648876C11.903 0.258572 12.2762 0 12.693 0H13.557C14.2552 0 14.7385 0.697373 14.4933 1.35112L13.5 4H15C15.5523 4 16 4.44772 16 5V6C16 6.55228 15.5523 7 15 7H12.375L11.625 9H13C13.5523 9 14 9.44772 14 10V11C14 11.5523 13.5523 12 13 12H10.5L9.24333 15.3511C9.09696 15.7414 8.72384 16 8.307 16H7.443C6.74479 16 6.26151 15.3026 6.50667 14.6489L7.5 12H5.5L4.24333 15.3511C4.09696 15.7414 3.72384 16 3.307 16H2.443C1.74479 16 1.26151 15.3026 1.50667 14.6489L2.5 12H1C0.447716 12 0 11.5523 0 11V10C0 9.44771 0.447715 9 1 9H3.625L4.375 7H3C2.44772 7 2 6.55228 2 6V5C2 4.44772 2.44772 4 3 4H5.5L6.75667 0.648876C6.90304 0.258572 7.27616 0 7.693 0H8.557C9.25521 0 9.73849 0.697373 9.49333 1.35112L8.5 4H10.5L11.7567 0.648876ZM7.375 7L6.625 9H8.625L9.375 7H7.375Z" fill="#B2B2B2"/>
</svg>
